<svg width="42" height="43" viewBox="0 0 42 43" fill="none" xmlns="http://www.w3.org/2000/svg">
<g clip-path="url(#clip0_311_17572)">
<mask id="mask0_311_17572" style="mask-type:luminance" maskUnits="userSpaceOnUse" x="0" y="0" width="42" height="43">
<path d="M42 0.501953H0V42.502H42V0.501953Z" fill="white"/>
</mask>
<g mask="url(#mask0_311_17572)">
<path d="M21.2458 10.3457C18.532 10.3457 16.324 8.13759 16.324 5.4238C16.324 2.71002 18.532 0.501953 21.2458 0.501953C23.9596 0.501953 26.1677 2.71002 26.1677 5.4238C26.1677 8.13759 23.9596 10.3457 21.2458 10.3457ZM21.2458 3.78298C20.3414 3.78298 19.605 4.5188 19.605 5.4238C19.605 6.32881 20.3408 7.06463 21.2458 7.06463C22.1508 7.06463 22.8866 6.32881 22.8866 5.4238C22.8866 4.5188 22.1508 3.78298 21.2458 3.78298Z" fill="#8D1F44"/>
<path d="M26.9058 20.5173C25.9996 20.5173 25.265 19.7827 25.265 18.8765C25.265 16.9766 23.6771 15.4312 21.7249 15.4312H20.7658C18.8136 15.4312 17.2257 16.9766 17.2257 18.8765C17.2257 19.7827 16.4912 20.5173 15.5849 20.5173C14.6787 20.5173 13.9441 19.7827 13.9441 18.8765C13.9441 15.1672 17.0043 12.1501 20.7652 12.1501H21.7243C25.4852 12.1501 28.5454 15.1678 28.5454 18.8765C28.5454 19.7827 27.8108 20.5173 26.9046 20.5173H26.9058Z" fill="#8D1F44"/>
<path d="M7.30076 32.3297C4.58697 32.3297 2.37891 30.1217 2.37891 27.4079C2.37891 24.6941 4.58697 22.486 7.30076 22.486C10.0145 22.486 12.2226 24.6941 12.2226 27.4079C12.2226 30.1217 10.0145 32.3297 7.30076 32.3297ZM7.30076 25.7671C6.39637 25.7671 5.65994 26.5029 5.65994 27.4079C5.65994 28.3129 6.39575 29.0487 7.30076 29.0487C8.20576 29.0487 8.94158 28.3129 8.94158 27.4079C8.94158 26.5029 8.20576 25.7671 7.30076 25.7671Z" fill="#8D1F44"/>
<path d="M12.961 42.5019C12.0547 42.5019 11.3201 41.7674 11.3201 40.8611C11.3201 38.9613 9.73223 37.4158 7.7801 37.4158H6.82095C4.86882 37.4158 3.28091 38.9613 3.28091 40.8611C3.28091 41.7674 2.54633 42.5019 1.64009 42.5019C0.733854 42.5019 -0.000732422 41.7674 -0.000732422 40.8611C-0.000732422 37.1519 3.05943 34.1348 6.82034 34.1348H7.77948C11.5404 34.1348 14.6006 37.1525 14.6006 40.8611C14.6006 41.7674 13.866 42.5019 12.9597 42.5019H12.961Z" fill="#8D1F44"/>
<path d="M34.699 32.3297C31.9852 32.3297 29.7771 30.1217 29.7771 27.4079C29.7771 24.6941 31.9852 22.486 34.699 22.486C37.4127 22.486 39.6208 24.6941 39.6208 27.4079C39.6208 30.1217 37.4127 32.3297 34.699 32.3297ZM34.699 25.7671C33.7946 25.7671 33.0581 26.5029 33.0581 27.4079C33.0581 28.3129 33.7939 29.0487 34.699 29.0487C35.604 29.0487 36.3398 28.3129 36.3398 27.4079C36.3398 26.5029 35.604 25.7671 34.699 25.7671Z" fill="#8D1F44"/>
<path d="M40.3592 42.5019C39.4529 42.5019 38.7183 41.7674 38.7183 40.8611C38.7183 38.9613 37.1304 37.4158 35.1783 37.4158H34.2191C32.267 37.4158 30.6791 38.9613 30.6791 40.8611C30.6791 41.7674 29.9445 42.5019 29.0383 42.5019C28.132 42.5019 27.3975 41.7674 27.3975 40.8611C27.3975 37.1519 30.4576 34.1348 34.2185 34.1348H35.1777C38.9386 34.1348 41.9988 37.1525 41.9988 40.8611C41.9988 41.7674 41.2642 42.5019 40.3579 42.5019H40.3592Z" fill="#8D1F44"/>
<path d="M36.077 19.6978C35.3363 19.6978 34.6638 19.1927 34.4829 18.4403C33.7182 15.2607 31.8239 12.4534 29.1489 10.5358C28.4124 10.0079 28.2433 8.98292 28.7711 8.24649C29.299 7.51005 30.324 7.34087 31.0604 7.86873C34.3759 10.2454 36.7242 13.727 37.6729 17.6731C37.8845 18.5541 37.3425 19.44 36.4615 19.6516C36.3329 19.6824 36.2037 19.6978 36.0764 19.6978H36.077Z" fill="#D0A15A"/>
<path d="M6.33246 19.6978C6.20572 19.6978 6.07652 19.683 5.94732 19.6517C5.06631 19.44 4.52368 18.5541 4.73593 17.6731C5.67478 13.767 7.99112 10.3081 11.258 7.93395C11.9907 7.40116 13.0169 7.56358 13.5497 8.29632C14.0825 9.02907 13.9201 10.0553 13.1874 10.5881C10.5517 12.5033 8.68326 15.2921 7.92652 18.4396C7.74564 19.1915 7.07381 19.6972 6.33246 19.6972V19.6978Z" fill="#D0A15A"/>
<path d="M21.2052 36.9237C19.4942 36.9237 17.7063 36.6197 15.892 36.0205C15.0319 35.7363 14.5643 34.8085 14.8486 33.9484C15.1328 33.0877 16.0606 32.6207 16.9207 32.905C18.4028 33.3941 19.8443 33.6426 21.2052 33.6426C22.566 33.6426 23.8285 33.4242 25.27 32.9757C26.135 32.7062 27.0548 33.1892 27.3242 34.0542C27.5937 34.9192 27.1108 35.839 26.2457 36.1085C24.4837 36.6573 22.8349 36.9237 21.2052 36.9237Z" fill="#D0A15A"/>
</g>
</g>
<defs>
<clipPath id="clip0_311_17572">
<rect width="42" height="42" fill="white" transform="translate(0 0.501953)"/>
</clipPath>
</defs>
</svg>
