<svg width="43" height="43" viewBox="0 0 43 43" fill="none" xmlns="http://www.w3.org/2000/svg">
<g clip-path="url(#clip0_80_14289)">
<mask id="mask0_80_14289" style="mask-type:luminance" maskUnits="userSpaceOnUse" x="0" y="0" width="43" height="43">
<path d="M42.5715 0.501953H0.571533V42.502H42.5715V0.501953Z" fill="white"/>
</mask>
<g mask="url(#mask0_80_14289)">
<path d="M32.2356 22.2402C32.2356 20.1837 33.4013 18.3995 35.1067 17.5103C34.3471 17.1141 33.503 16.9074 32.6458 16.9082C29.7008 16.9082 27.3137 19.2953 27.3137 22.2402C27.3137 25.1852 29.7008 27.5723 32.6458 27.5723C33.503 27.5731 34.3471 27.3664 35.1067 26.9702C33.4013 26.0809 32.2356 24.2976 32.2356 22.2402Z" fill="#FFC7D9"/>
<path d="M24.5247 40.8613C24.5247 36.7146 27.8863 33.3145 32.033 33.3145H33.4234C37.5701 33.3145 40.9309 36.7146 40.9309 40.8613" stroke="#D0A15A" stroke-width="3.51562" stroke-linecap="round" stroke-linejoin="round"/>
<path d="M37.9778 22.2402C37.9778 25.1852 35.5907 27.5723 32.6458 27.5723C29.7008 27.5723 27.3137 25.1852 27.3137 22.2402C27.3137 19.2953 29.7008 16.9082 32.6458 16.9082C35.5907 16.9082 37.9778 19.2953 37.9778 22.2402Z" stroke="#8D1F44" stroke-width="3.51562" stroke-linecap="round" stroke-linejoin="round"/>
<path d="M7.13403 32.6615V10.3424C7.13403 5.81348 10.7967 2.14258 15.3142 2.14258H10.3333C5.80267 2.14258 2.13013 5.81512 2.13013 10.3457V32.6582C2.13013 37.1888 5.80267 40.8613 10.3333 40.8613H15.3142C10.7967 40.8613 7.13403 37.1904 7.13403 32.6615Z" fill="#FFC7D9"/>
<path d="M33.7138 10.3441C33.7138 5.8143 30.0421 2.14258 25.5123 2.14258H10.4136C5.88388 2.14258 2.21216 5.8143 2.21216 10.3441V32.6598C2.21216 37.1896 5.88388 40.8613 10.4136 40.8613H17.9622" stroke="#8D1F44" stroke-width="3.51562" stroke-linecap="round" stroke-linejoin="round"/>
<path d="M13.5325 10.8379C13.5325 11.9707 12.6145 12.8887 11.4817 12.8887C10.3488 12.8887 9.43091 11.9707 9.43091 10.8379C9.43091 9.70504 10.3488 8.78711 11.4817 8.78711C12.6145 8.78711 13.5325 9.70504 13.5325 10.8379Z" fill="#D0A15A"/>
<path d="M20.5872 10.8379C20.5872 11.9707 19.6692 12.8887 18.5364 12.8887C17.4035 12.8887 16.4856 11.9707 16.4856 10.8379C16.4856 9.70504 17.4035 8.78711 18.5364 8.78711C19.6692 8.78711 20.5872 9.70504 20.5872 10.8379Z" fill="#8D1F44"/>
<path d="M27.6418 10.8379C27.6418 11.9707 26.7239 12.8887 25.5911 12.8887C24.4582 12.8887 23.5403 11.9707 23.5403 10.8379C23.5403 9.70504 24.4582 8.78711 25.5911 8.78711C26.7239 8.78711 27.6418 9.70504 27.6418 10.8379Z" fill="#8D1F44"/>
<path d="M13.5325 17.8926C13.5325 19.0254 12.6145 19.9434 11.4817 19.9434C10.3488 19.9434 9.43091 19.0254 9.43091 17.8926C9.43091 16.7597 10.3488 15.8418 11.4817 15.8418C12.6145 15.8418 13.5325 16.7597 13.5325 17.8926Z" fill="#8D1F44"/>
<path d="M13.5325 24.9473C13.5325 26.0801 12.6145 26.998 11.4817 26.998C10.3488 26.998 9.43091 26.0801 9.43091 24.9473C9.43091 23.8144 10.3488 22.8965 11.4817 22.8965C12.6145 22.8965 13.5325 23.8144 13.5325 24.9473Z" fill="#8D1F44"/>
<path d="M13.5325 32.002C13.5325 33.1348 12.6145 34.0527 11.4817 34.0527C10.3488 34.0527 9.43091 33.1348 9.43091 32.002C9.43091 30.8691 10.3488 29.9512 11.4817 29.9512C12.6145 29.9512 13.5325 30.8691 13.5325 32.002Z" fill="#8D1F44"/>
<path d="M20.5872 17.8926C20.5872 19.0254 19.6692 19.9434 18.5364 19.9434C17.4035 19.9434 16.4856 19.0254 16.4856 17.8926C16.4856 16.7597 17.4035 15.8418 18.5364 15.8418C19.6692 15.8418 20.5872 16.7597 20.5872 17.8926Z" fill="#8D1F44"/>
<path d="M20.5872 24.9473C20.5872 26.0801 19.6692 26.998 18.5364 26.998C17.4035 26.998 16.4856 26.0801 16.4856 24.9473C16.4856 23.8144 17.4035 22.8965 18.5364 22.8965C19.6692 22.8965 20.5872 23.8144 20.5872 24.9473Z" fill="#8D1F44"/>
<path d="M20.5872 32.002C20.5872 33.1348 19.6692 34.0527 18.5364 34.0527C17.4035 34.0527 16.4856 33.1348 16.4856 32.002C16.4856 30.8691 17.4035 29.9512 18.5364 29.9512C19.6692 29.9512 20.5872 30.8691 20.5872 32.002Z" fill="#8D1F44"/>
</g>
</g>
<defs>
<clipPath id="clip0_80_14289">
<rect width="42" height="42" fill="white" transform="translate(0.571533 0.501953)"/>
</clipPath>
</defs>
</svg>
