<svg width="43" height="43" viewBox="0 0 43 43" fill="none" xmlns="http://www.w3.org/2000/svg">
<g clip-path="url(#clip0_311_17607)">
<path d="M31.1296 2.14258V21.1738" stroke="#8D1F44" stroke-width="3.28125" stroke-miterlimit="10" stroke-linecap="round" stroke-linejoin="round"/>
<path d="M9.80151 34.2988V4.98373C9.30305 5.27262 8.73702 5.42446 8.16089 5.42383C6.34874 5.42383 4.87964 3.95473 4.87964 2.14258V34.2988C4.87964 37.9081 7.83285 40.8613 11.4421 40.8613H16.364C12.7547 40.8613 9.80151 37.9081 9.80151 34.2988Z" fill="#FFC7D9"/>
<path d="M31.1296 37.5801C31.1296 39.3848 32.6062 40.8613 34.4109 40.8613H11.4421C7.83285 40.8613 4.87964 37.9081 4.87964 34.2988V2.14258C4.87964 3.95473 6.34874 5.42383 8.16089 5.42383C9.97304 5.42383 11.4421 3.95473 11.4421 2.14258C11.4421 3.95473 12.9112 5.42383 14.7234 5.42383C16.5355 5.42383 18.0046 3.95473 18.0046 2.14258" stroke="#8D1F44" stroke-width="3.28125" stroke-miterlimit="10" stroke-linecap="round" stroke-linejoin="round"/>
<path d="M37.6921 27.7363V37.5801C37.6921 39.3848 36.2156 40.8613 34.4109 40.8613C32.6062 40.8613 31.1296 39.3848 31.1296 37.5801" stroke="#8D1F44" stroke-width="3.28125" stroke-miterlimit="10" stroke-linecap="round" stroke-linejoin="round"/>
<path d="M37.6921 27.7363C37.6921 29.5485 36.223 31.0176 34.4109 31.0176C32.5987 31.0176 31.1296 29.5485 31.1296 27.7363V37.5801" stroke="#8D1F44" stroke-width="3.28125" stroke-miterlimit="10" stroke-linecap="round" stroke-linejoin="round"/>
<path d="M18.0046 13.2988V16.5801M18.0046 16.5801C19.2192 16.5801 20.2796 17.2399 20.8469 18.2207M18.0046 16.5801C16.1925 16.5801 14.7234 18.0492 14.7234 19.8613C14.7234 21.6735 16.1925 23.1426 18.0046 23.1426C19.8168 23.1426 21.2859 24.6116 21.2859 26.4238C21.2859 28.2361 19.8168 29.7051 18.0046 29.7051M18.0046 29.7051C16.7901 29.7051 15.7297 29.0452 15.1623 28.0645M18.0046 29.7051V32.9863" stroke="#D0A15A" stroke-width="3.28125" stroke-miterlimit="10" stroke-linecap="round" stroke-linejoin="round"/>
<path d="M18.0046 2.14258C18.0046 3.95473 19.4737 5.42383 21.2859 5.42383C23.098 5.42383 24.5671 3.95473 24.5671 2.14258C24.5671 3.95473 26.0362 5.42383 27.8484 5.42383C29.6605 5.42383 31.1296 3.95473 31.1296 2.14258" stroke="#8D1F44" stroke-width="3.28125" stroke-miterlimit="10" stroke-linecap="round" stroke-linejoin="round"/>
</g>
<defs>
<clipPath id="clip0_311_17607">
<rect width="42" height="42" fill="white" transform="translate(0.285889 0.501953)"/>
</clipPath>
</defs>
</svg>
