<svg width="43" height="43" viewBox="0 0 43 43" fill="none" xmlns="http://www.w3.org/2000/svg">
<g clip-path="url(#clip0_311_17567)">
<path d="M6.70554 26.0957V10.3458C6.70554 5.81535 10.3781 2.14275 14.9086 2.14275H9.98677C5.45629 2.14275 1.78369 5.81535 1.78369 10.3458V26.0957C1.78369 30.6262 5.45629 34.2988 9.98677 34.2988H14.9086C10.3781 34.2988 6.70554 30.6261 6.70554 26.0957Z" fill="#FFC7D9"/>
<path d="M32.2991 35.9394H9.98676C4.55895 35.9394 0.143066 31.5235 0.143066 26.0957V10.3458C0.143066 4.91802 4.55895 0.502136 9.98676 0.502136H25.7367C26.6428 0.502136 27.3773 1.23664 27.3773 2.14275C27.3773 3.04886 26.6428 3.78337 25.7367 3.78337H9.98676C6.36822 3.78337 3.4243 6.72729 3.4243 10.3458V26.0957C3.4243 29.7143 6.36822 32.6582 9.98676 32.6582H32.2991C35.9177 32.6582 38.8616 29.7143 38.8616 26.0957V25.4395C38.8616 24.5334 39.5961 23.7989 40.5022 23.7989C41.4083 23.7989 42.1428 24.5334 42.1428 25.4395V26.0957C42.1428 31.5235 37.7269 35.9394 32.2991 35.9394ZM38.388 41.1745C39.8394 40.3301 41.052 39.1303 41.9119 37.6881C42.3755 36.9095 42.1201 35.9026 41.3415 35.439C40.5632 34.9756 39.5561 35.2308 39.0926 36.0094C37.9132 37.9901 35.7507 39.2206 33.4489 39.2206H8.83833C6.53646 39.2206 4.37397 37.9901 3.19461 36.0094C2.73114 35.2308 1.7238 34.9756 0.945656 35.439C0.167101 35.9026 -0.0882604 36.9095 0.375296 37.6881C1.2352 39.1303 2.44785 40.3301 3.89917 41.1745C5.39369 42.0428 7.10157 42.5018 8.83833 42.5018H33.4489C35.1856 42.5019 36.8935 42.0428 38.388 41.1745ZM22.7836 27.7364V8.70521C22.7836 7.7991 22.0491 7.0646 21.1429 7.0646C20.2368 7.0646 19.5023 7.7991 19.5023 8.70521V27.7364C19.5023 28.6425 20.2368 29.377 21.1429 29.377C22.0491 29.377 22.7836 28.6425 22.7836 27.7364ZM16.2211 11.9044C16.2211 10.9983 15.4866 10.2638 14.5805 10.2638H8.34614C7.44003 10.2638 6.70553 10.9983 6.70553 11.9044C6.70553 12.8105 7.44003 13.545 8.34614 13.545H14.5805C15.4866 13.545 16.2211 12.8105 16.2211 11.9044ZM16.2211 18.4669C16.2211 17.5608 15.4866 16.8263 14.5805 16.8263H8.34614C7.44003 16.8263 6.70553 17.5608 6.70553 18.4669C6.70553 19.373 7.44003 20.1075 8.34614 20.1075H14.5805C15.4866 20.1075 16.2211 19.373 16.2211 18.4669ZM35.5804 25.0293C35.5804 24.1232 34.8459 23.3887 33.9397 23.3887H27.7054C26.7993 23.3887 26.0648 24.1232 26.0648 25.0293C26.0648 25.9354 26.7993 26.67 27.7054 26.67H33.9397C34.8459 26.67 35.5804 25.9354 35.5804 25.0293ZM16.2211 25.0293C16.2211 24.1232 15.4866 23.3887 14.5805 23.3887H8.34614C7.44003 23.3887 6.70553 24.1232 6.70553 25.0293C6.70553 25.9354 7.44003 26.67 8.34614 26.67H14.5805C15.4866 26.67 16.2211 25.9354 16.2211 25.0293Z" fill="#8D1F44"/>
<path d="M34.842 10.3458C32.1281 10.3458 29.9202 8.13787 29.9202 5.42397C29.9202 2.71006 32.1281 0.502121 34.842 0.502121C37.5559 0.502121 39.7639 2.71006 39.7639 5.42397C39.7639 8.13787 37.5559 10.3458 34.842 10.3458ZM34.842 3.78335C33.9374 3.78335 33.2014 4.51933 33.2014 5.42397C33.2014 6.3286 33.9374 7.06458 34.842 7.06458C35.7467 7.06458 36.4827 6.3286 36.4827 5.42397C36.4827 4.51933 35.7467 3.78335 34.842 3.78335ZM42.1428 18.877C42.1428 15.168 39.0829 12.1505 35.3218 12.1505H34.3624C30.6012 12.1505 27.5414 15.168 27.5414 18.877C27.5414 19.7831 28.2759 20.5176 29.182 20.5176C30.0881 20.5176 30.8226 19.7831 30.8226 18.877C30.8226 16.9773 32.4106 15.4317 34.3624 15.4317H35.3218C37.2736 15.4317 38.8615 16.9773 38.8615 18.877C38.8615 19.7831 39.596 20.5176 40.5022 20.5176C41.4083 20.5176 42.1428 19.7831 42.1428 18.877Z" fill="#D0A15A"/>
</g>
<defs>
<clipPath id="clip0_311_17567">
<rect width="42" height="42" fill="white" transform="translate(0.143066 0.501953)"/>
</clipPath>
</defs>
</svg>
