<svg width="43" height="43" viewBox="0 0 43 43" fill="none" xmlns="http://www.w3.org/2000/svg">
<g clip-path="url(#clip0_311_17231)">
<mask id="mask0_311_17231" style="mask-type:luminance" maskUnits="userSpaceOnUse" x="0" y="0" width="43" height="43">
<path d="M42.7144 0.501953H0.714355V42.502H42.7144V0.501953Z" fill="white"/>
</mask>
<g mask="url(#mask0_311_17231)">
<path d="M7.27686 26.0957V10.3457C7.27686 5.81512 10.9494 2.14258 15.48 2.14258H10.5581C6.02752 2.14258 2.35498 5.81512 2.35498 10.3457V26.0957C2.35498 30.6263 6.02752 34.2988 10.5581 34.2988H15.48C10.9494 34.2988 7.27686 30.6263 7.27686 26.0957Z" fill="#FFC7D9"/>
<path d="M34.4489 17.8983C33.7804 17.4553 32.8255 17.5973 32.3415 18.3257L31.9773 18.8737C31.6352 19.3888 31.0151 19.6456 30.4097 19.5234L29.7649 19.3929C28.6985 19.178 27.7576 20.1189 27.9734 21.1845L28.1038 21.8293C28.226 22.4355 27.9693 23.0548 27.4541 23.3969L26.9061 23.7611C26.0005 24.3632 26.0005 25.6937 26.9061 26.295L27.4541 26.6593C27.9693 27.0013 28.226 27.6215 28.1038 28.2269L27.9734 28.8716C27.7585 29.938 28.6994 30.8781 29.7649 30.6632L30.4097 30.5328C31.0159 30.4105 31.6352 30.6673 31.9773 31.1825L32.3415 31.7304C32.8255 32.4589 33.7804 32.6008 34.4489 32.1578C33.1717 30.258 32.3785 26.9603 32.3785 25.0268C32.3785 23.0934 33.1709 19.7949 34.4489 17.8959" fill="#FFC7D9"/>
<path d="M23.437 34.2988H10.5581C6.02752 34.2988 2.35498 30.6263 2.35498 26.0957V10.3457C2.35498 5.81512 6.02752 2.14258 10.5581 2.14258H32.8706C37.4012 2.14258 41.0737 5.81512 41.0737 10.3457V13.2988" stroke="#8D1F44" stroke-width="3.50625" stroke-linecap="round" stroke-linejoin="round"/>
<path d="M10.5581 17.7285H22.3706" stroke="#8D1F44" stroke-width="3.50625" stroke-linecap="round" stroke-linejoin="round"/>
<path d="M10.5581 24.291H18.0229" stroke="#8D1F44" stroke-width="3.50625" stroke-linecap="round" stroke-linejoin="round"/>
<path d="M34.9582 18.3257L35.3225 18.8737C35.6645 19.3888 36.2847 19.6456 36.8901 19.5234L37.5348 19.3929C38.6013 19.178 39.5422 20.1189 39.3264 21.1845L39.196 21.8293C39.0738 22.4355 39.3305 23.0548 39.8457 23.3969L40.3936 23.7611C41.2993 24.3624 41.2993 25.6937 40.3936 26.295L39.8457 26.6593C39.3305 27.0013 39.0738 27.6207 39.196 28.2269L39.3264 28.8716C39.5413 29.938 38.6004 30.8789 37.5348 30.6632L36.8901 30.5328C36.2839 30.4105 35.6645 30.6673 35.3225 31.1825L34.9582 31.7304C34.3561 32.6361 33.0256 32.6361 32.4243 31.7304L32.0601 31.1825C31.718 30.6673 31.0979 30.4105 30.4925 30.5328L29.8477 30.6632C28.7813 30.8781 27.8404 29.9372 28.0561 28.8716L28.1866 28.2269C28.3088 27.6207 28.052 27.0013 27.5369 26.6593L26.9889 26.295C26.0833 25.6929 26.0833 24.3624 26.9889 23.7611L27.5369 23.3969C28.052 23.0548 28.3088 22.4355 28.1866 21.8293L28.0561 21.1845C27.8412 20.1181 28.7821 19.1772 29.8477 19.3929L30.4925 19.5234C31.0987 19.6456 31.718 19.3888 32.0601 18.8737L32.4243 18.3257C33.0264 17.4201 34.357 17.4201 34.9582 18.3257Z" stroke="#8D1F44" stroke-width="3.50625" stroke-linecap="round" stroke-linejoin="round"/>
<path d="M10.5581 11.166H32.8706" stroke="#D0A15A" stroke-width="3.50625" stroke-linecap="round" stroke-linejoin="round"/>
<path d="M37.7104 36.5957V39.6965C37.7104 40.7145 36.4939 41.2411 35.7524 40.543L33.6089 38.5636L31.4654 40.543C30.7238 41.2403 29.5073 40.7145 29.5073 39.6965V36.5957" stroke="#D0A15A" stroke-width="3.50625" stroke-linecap="round" stroke-linejoin="round"/>
</g>
</g>
<defs>
<clipPath id="clip0_311_17231">
<rect width="42" height="42" fill="white" transform="translate(0.714355 0.501953)"/>
</clipPath>
</defs>
</svg>
